<?xml version="1.0" encoding="UTF-8"?>
<svg width="26px" height="26px" viewBox="0 0 26 26" version="1.1" xmlns="http://www.w3.org/2000/svg" xmlns:xlink="http://www.w3.org/1999/xlink">
    <title>Group 13</title>
    <defs>
        <polygon id="path-1" points="0 0 18 0 18 16 0 16"></polygon>
        <polygon id="path-3" points="0 0 13 0 13 12 0 12"></polygon>
        <polygon id="path-5" points="1 26 26 26 26 1 1 1"></polygon>
    </defs>
    <g id="Desktop" stroke="none" stroke-width="1" fill="none" fill-rule="evenodd">
        <g id="007---Our-People---Bio" transform="translate(-689.000000, -2811.000000)">
            <g id="Group-13" transform="translate(689.000000, 2811.000000)">
                <g id="Group-3" transform="translate(4.000000, 0.000000)">
                    <mask id="mask-2" fill="white">
                        <use xlink:href="#path-1"></use>
                    </mask>
                    <g id="Clip-2"></g>
                    <path d="M16.9365988,1.05808781 L1.06393284,1.05808781 L2.01985491,7.92716618 C2.02357652,7.95150585 2.0251715,7.97584552 2.0251715,8.00018519 C2.0251715,11.827863 5.15398206,14.9417534 9,14.9417534 C12.8460179,14.9417534 15.9748285,11.827863 15.9748285,8.00018519 C15.9748285,7.97584552 15.9764235,7.95150585 15.9801451,7.92716618 L16.9365988,1.05808781 Z M9,16 C4.58032248,16 0.982057427,12.4310635 0.961854402,8.03722382 L0.0101855998,1.20306759 C-0.032347084,0.900409078 0.0596298449,0.594046702 0.261660093,0.363348953 C0.463690342,0.132122082 0.756102544,-0.000158736983 1.06393284,-0.000158736983 L16.9365988,-0.000158736983 C17.2438975,-0.000158736983 17.5363097,0.132122082 17.7383399,0.36281983 C17.9403702,0.593517578 18.0323471,0.899879955 17.9898144,1.20306759 L17.0381456,8.03722382 C17.0179426,12.4310635 13.4202092,16 9,16 L9,16 Z" id="Fill-1" fill="#A86B48" mask="url(#mask-2)"></path>
                </g>
                <path d="M12.4687334,16 C1.52039071,16 0.158754338,7.69477112 0.00203068273,5.14962909 C-0.0160323826,4.85326579 0.0870333432,4.55907364 0.286258329,4.34250045 C0.486545847,4.12484169 0.76971096,4 1.06297014,4 L4.29944644,4 C4.59270561,4 4.83071306,4.24316989 4.83071306,4.54278994 C4.83071306,4.84240999 4.59270561,5.08557988 4.29944644,5.08557988 L1.06297014,5.08557988 C1.20428706,7.38809481 2.44638844,14.9144201 12.4687334,14.9144201 C12.7619926,14.9144201 13,15.1570472 13,15.4572101 C13,15.7573729 12.7619926,16 12.4687334,16" id="Fill-4" fill="#A86B48"></path>
                <g id="Group-8" transform="translate(12.000000, 4.000000)">
                    <mask id="mask-4" fill="white">
                        <use xlink:href="#path-3"></use>
                    </mask>
                    <g id="Clip-7"></g>
                    <path d="M0.531267113,12 C0.238007667,12 0,11.7573729 0,11.4572101 C0,11.1570472 0.238007667,10.9144201 0.531267113,10.9144201 C10.5546837,10.9144201 11.7957237,3.38809481 11.937572,1.08178035 L8.70056151,1.08557988 C8.40730206,1.08557988 8.1692944,0.842409987 8.1692944,0.54278994 C8.1692944,0.243169893 8.40730206,0 8.70056151,0 L11.9370408,0 C12.2303002,0 12.5134656,0.124841686 12.7137533,0.342500452 C12.9124472,0.559073639 13.0160443,0.853265786 12.9979812,1.14962909 C12.8412574,3.69477112 11.4806823,12 0.531267113,12" id="Fill-6" fill="#A86B48" mask="url(#mask-4)"></path>
                </g>
                <path d="M12.0169061,16.0265886 L12.0169061,18.9734114 L13.9836024,18.9734114 L13.9830939,16.0265886 L12.0169061,16.0265886 Z M13.9830939,20 L12.0169061,20 C11.4560824,20 11,19.539575 11,18.9734114 L11,16.0265886 C11,15.460425 11.4560824,15 12.0169061,15 L13.9830939,15 C14.5439176,15 15,15.460425 15,16.0265886 L15,18.9734114 C15,19.539575 14.5439176,20 13.9830939,20 L13.9830939,20 Z" id="Fill-9" fill="#A86B48"></path>
                <mask id="mask-6" fill="white">
                    <use xlink:href="#path-5"></use>
                </mask>
                <g id="Clip-12"></g>
                <path d="M7.02609206,24.9768076 L18.9739079,24.9768076 L18.9739079,21.0231924 L7.02609206,21.0231924 L7.02609206,24.9768076 Z M18.9739079,26 L7.02609206,26 C6.46020229,26 6,25.5410982 6,24.9768076 L6,21.0231924 C6,20.4594134 6.46020229,20 7.02609206,20 L18.9739079,20 C19.5397977,20 20,20.4594134 20,21.0231924 L20,24.9768076 C20,25.5410982 19.5397977,26 18.9739079,26 L18.9739079,26 Z" id="Fill-11" fill="#A86B48" mask="url(#mask-6)"></path>
            </g>
        </g>
    </g>
</svg>