<?xml version="1.0" encoding="UTF-8"?>
<svg width="171px" height="442px" viewBox="0 0 171 442" version="1.1" xmlns="http://www.w3.org/2000/svg" xmlns:xlink="http://www.w3.org/1999/xlink">
    <title>Combined Shape Copy</title>
    <g id="Desktop" stroke="none" stroke-width="1" fill="none" fill-rule="evenodd">
        <g id="024---Orphan-Landing-Page" transform="translate(-99.000000, -136.000000)" fill="#A36645">
            <g id="Overlay-Shape" transform="translate(0.000000, 86.000000)">
                <path d="M269.13198,457.128205 L269.13198,492 L99,492 L99,457.128205 L269.13198,457.128205 Z M270,120.615385 L270,285.228168 L201.641565,285.228168 L201.641565,387.526413 L269.792177,387.526413 L269.792177,422.25641 L166.973578,422.25641 L166.973578,285.228168 L133.667987,285.228168 L133.667987,422.127895 L99,422.127895 L99,120.615385 L270,120.615385 Z M269.13198,318.512821 L269.13198,352.512821 L235.279188,352.512821 L235.279188,318.512821 L269.13198,318.512821 Z M234.375,156.935484 L134.625,156.935484 L134.625,249.612903 L167.303547,249.612903 L167.303547,190.086957 L201.318841,190.086957 L201.318841,249.612903 L234.375,249.612903 L234.375,156.935484 Z M270,50 L270,84.8717949 L99,84.8717949 L99,50 L270,50 Z" id="Combined-Shape-Copy"></path>
            </g>
        </g>
    </g>
</svg>