<?xml version="1.0" encoding="UTF-8"?>
<svg width="171px" height="412px" viewBox="0 0 171 412" version="1.1" xmlns="http://www.w3.org/2000/svg" xmlns:xlink="http://www.w3.org/1999/xlink">
    <title>Combined Shape Copy</title>
    <g id="Desktop" stroke="none" stroke-width="1" fill="none" fill-rule="evenodd">
        <g id="018---DEI" transform="translate(-99.000000, -184.000000)" fill="#A36645">
            <g id="Overlay-Shape" transform="translate(0.000000, 86.000000)">
                <path d="M269.13198,505.128205 L269.13198,540 L99,540 L99,505.128205 L269.13198,505.128205 Z M270,168.615385 L270,333.228168 L201.641565,333.228168 L201.641565,435.526413 L269.792177,435.526413 L269.792177,470.25641 L166.973578,470.25641 L166.973578,333.228168 L133.667987,333.228168 L133.667987,470.127895 L99,470.127895 L99,168.615385 L270,168.615385 Z M269.13198,366.512821 L269.13198,400.512821 L235.279188,400.512821 L235.279188,366.512821 L269.13198,366.512821 Z M234.375,204.935484 L134.625,204.935484 L134.625,297.612903 L167.303547,297.612903 L167.303547,238.086957 L201.318841,238.086957 L201.318841,297.612903 L234.375,297.612903 L234.375,204.935484 Z M270,98 L270,132.871795 L99,132.871795 L99,98 L270,98 Z" id="Combined-Shape-Copy"></path>
            </g>
        </g>
    </g>
</svg>