<?xml version="1.0" encoding="UTF-8"?>
<svg width="49px" height="45px" viewBox="0 0 49 45" version="1.1" xmlns="http://www.w3.org/2000/svg" xmlns:xlink="http://www.w3.org/1999/xlink">
    <title>Group 14</title>
    <defs>
        <polygon id="path-1" points="0 0 48.199 0 48.199 44.5397 0 44.5397"></polygon>
    </defs>
    <g id="Desktop" stroke="none" stroke-width="1" fill="none" fill-rule="evenodd">
        <g id="006---Our-People" transform="translate(-928.000000, -794.000000)">
            <g id="OP:-Feature-Points" transform="translate(200.000000, 664.000000)">
                <g id="Group-14" transform="translate(728.000000, 130.000000)">
                    <g id="Group-3">
                        <mask id="mask-2" fill="white">
                            <use xlink:href="#path-1"></use>
                        </mask>
                        <g id="Clip-2"></g>
                        <path d="M46,7.1967 L39.199,7.1967 L39.199,5.4367 C39.34,4.8927 40.107,2.3967 42.378,2.3967 C42.587,2.3967 42.771,2.3227 42.938,2.2217 C45.519,2.4397 45.945,5.0917 46,5.5777 L46,7.1967 Z M37,36.3037 C37,41.1917 34.619,42.1207 33.632,42.2967 C33.614,42.2887 33.601,42.2747 33.582,42.2677 C31.982,41.6617 30.199,40.4787 30.199,39.7467 L30.199,36.2967 C30.199,35.6897 29.707,35.1967 29.1,35.1967 L7.199,35.1967 L7.199,5.5947 C7.199,3.5697 9.318,2.6187 9.899,2.3967 L38.236,2.3967 C37.562,3.3187 37.176,4.3447 37.022,5.0837 C37.008,5.1567 37,5.2327 37,5.3077 L37,36.3037 Z M3.683,42.1967 C2.512,42.1967 2.245,40.8427 2.199,40.5367 L2.199,37.3967 L28,37.3967 L28,39.7467 C28,40.6987 28.521,41.5207 29.226,42.1967 L3.683,42.1967 Z M48.195,5.4257 C48.032,3.5497 46.652,-0.0003 42.599,-0.0003 C42.376,-0.0003 42.18,0.0827 42.007,0.1967 L9.71,0.1967 C9.598,0.1967 9.485,0.2147 9.379,0.2477 C9.199,0.3047 5,1.6767 5,5.5947 L5,35.1967 L1.1,35.1967 C0.492,35.1967 0,35.6897 0,36.2967 L0,40.6087 C0,40.6477 0.002,40.6867 0.006,40.7257 C0.142,41.9947 1.084,44.3967 3.683,44.3967 L32.732,44.3967 C32.885,44.4787 33.051,44.5387 33.237,44.5397 L33.244,44.5397 C33.392,44.5397 35.349,44.5087 36.989,42.8807 C38.456,41.4257 39.199,39.2127 39.199,36.3037 L39.199,9.3967 L47.1,9.3967 C47.707,9.3967 48.199,8.9047 48.199,8.2967 L48.195,5.4257 Z" id="Fill-1" fill="#A86B49" mask="url(#mask-2)"></path>
                    </g>
                    <path d="M31.0996,23.1967 L12.0996,23.1967 C11.4926,23.1967 10.9996,23.6897 10.9996,24.2967 C10.9996,24.9047 11.4926,25.3967 12.0996,25.3967 L31.0996,25.3967 C31.7066,25.3967 32.1996,24.9047 32.1996,24.2967 C32.1996,23.6897 31.7066,23.1967 31.0996,23.1967" id="Fill-4" fill="#A86B49"></path>
                    <path d="M31.0996,27.1972 L12.0996,27.1972 C11.4926,27.1972 10.9996,27.6892 10.9996,28.2972 C10.9996,28.9042 11.4926,29.3962 12.0996,29.3962 L31.0996,29.3962 C31.7066,29.3962 32.1996,28.9042 32.1996,28.2972 C32.1996,27.6892 31.7066,27.1972 31.0996,27.1972" id="Fill-6" fill="#A86B49"></path>
                    <path d="M31.0996,15.1967 L12.0996,15.1967 C11.4926,15.1967 10.9996,15.6897 10.9996,16.2967 C10.9996,16.9047 11.4926,17.3967 12.0996,17.3967 L31.0996,17.3967 C31.7066,17.3967 32.1996,16.9047 32.1996,16.2967 C32.1996,15.6897 31.7066,15.1967 31.0996,15.1967" id="Fill-8" fill="#A86B49"></path>
                    <path d="M31.0996,11.1967 L12.0996,11.1967 C11.4926,11.1967 10.9996,11.6897 10.9996,12.2967 C10.9996,12.9047 11.4926,13.3967 12.0996,13.3967 L31.0996,13.3967 C31.7066,13.3967 32.1996,12.9047 32.1996,12.2967 C32.1996,11.6897 31.7066,11.1967 31.0996,11.1967" id="Fill-10" fill="#A86B49"></path>
                    <path d="M31.0996,19.1967 L12.0996,19.1967 C11.4926,19.1967 10.9996,19.6897 10.9996,20.2967 C10.9996,20.9047 11.4926,21.3967 12.0996,21.3967 L31.0996,21.3967 C31.7066,21.3967 32.1996,20.9047 32.1996,20.2967 C32.1996,19.6897 31.7066,19.1967 31.0996,19.1967" id="Fill-12" fill="#A86B49"></path>
                </g>
            </g>
        </g>
    </g>
</svg>