<?xml version="1.0" encoding="UTF-8"?>
<svg width="45px" height="47px" viewBox="0 0 45 47" version="1.1" xmlns="http://www.w3.org/2000/svg" xmlns:xlink="http://www.w3.org/1999/xlink">
    <title>Group 10</title>
    <defs>
        <polygon id="path-1" points="0 0 18 0 18 26.272 0 26.272"></polygon>
    </defs>
    <g id="Desktop" stroke="none" stroke-width="1" fill="none" fill-rule="evenodd">
        <g id="018---DEI" transform="translate(-810.000000, -1613.000000)">
            <g id="Group-10" transform="translate(810.000000, 1613.000000)">
                <path d="M16,44.272 L2,44.272 L2,38.05 C2,35.327 4.224,33.272 7.173,33.272 L10.606,33.272 C13.258,33.272 16,35.059 16,38.05 L16,44.272 Z M8.89,22 C11.354,22 13.359,24.005 13.359,26.47 C13.359,28.935 11.354,30.94 8.89,30.94 C6.425,30.94 4.419,28.935 4.419,26.47 C4.419,24.005 6.425,22 8.89,22 L8.89,22 Z M12.833,31.588 C14.366,30.403 15.359,28.553 15.359,26.47 C15.359,22.902 12.457,20 8.89,20 C5.321,20 2.419,22.902 2.419,26.47 C2.419,28.556 3.416,30.41 4.953,31.594 C2.05,32.458 0,34.985 0,38.05 L0,45.272 C0,45.825 0.447,46.272 1,46.272 L17,46.272 C17.553,46.272 18,45.825 18,45.272 L18,38.05 C18,35.024 15.825,32.456 12.833,31.588 L12.833,31.588 Z" id="Fill-1" fill="#A86B49"></path>
                <g id="Group-5" transform="translate(27.000000, 0.000000)">
                    <mask id="mask-2" fill="white">
                        <use xlink:href="#path-1"></use>
                    </mask>
                    <g id="Clip-4"></g>
                    <path d="M16,24.272 L2,24.272 L2,18.05 C2,15.327 4.224,13.272 7.173,13.272 L10.606,13.272 C13.258,13.272 16,15.059 16,18.05 L16,24.272 Z M8.89,2 C11.354,2 13.359,4.005 13.359,6.47 C13.359,8.935 11.354,10.94 8.89,10.94 C6.425,10.94 4.419,8.935 4.419,6.47 C4.419,4.005 6.425,2 8.89,2 L8.89,2 Z M12.833,11.588 C14.366,10.403 15.359,8.553 15.359,6.47 C15.359,2.902 12.457,0 8.89,0 C5.321,0 2.419,2.902 2.419,6.47 C2.419,8.556 3.416,10.41 4.953,11.594 C2.05,12.458 0,14.985 0,18.05 L0,25.272 C0,25.825 0.447,26.272 1,26.272 L17,26.272 C17.553,26.272 18,25.825 18,25.272 L18,18.05 C18,15.024 15.825,12.456 12.833,11.588 L12.833,11.588 Z" id="Fill-3" fill="#A86B49" mask="url(#mask-2)"></path>
                </g>
                <path d="M23.0422,6.4232 C23.0812,6.3612 23.1202,6.3022 23.1452,6.2322 C23.1682,6.1702 23.1742,6.1072 23.1842,6.0422 C23.1912,5.9922 23.2132,5.9482 23.2132,5.8972 C23.2132,5.8772 23.2032,5.8612 23.2022,5.8422 C23.2012,5.8232 23.2092,5.8052 23.2072,5.7852 C23.2012,5.7372 23.1752,5.6962 23.1632,5.6502 C23.1462,5.5832 23.1312,5.5182 23.1012,5.4572 C23.0742,5.4032 23.0372,5.3582 23.0012,5.3102 C22.9582,5.2522 22.9172,5.1982 22.8632,5.1512 C22.8462,5.1372 22.8382,5.1152 22.8202,5.1022 L18.7322,1.9772 C18.2932,1.6442 17.6672,1.7262 17.3302,2.1642 C16.9952,2.6032 17.0792,3.2312 17.5172,3.5672 L19.4522,5.0452 C13.2042,5.7262 9.2622,8.6542 6.9782,11.1602 C4.1522,14.2622 3.2062,17.3552 3.1672,17.4862 C3.0092,18.0142 3.3092,18.5722 3.8392,18.7302 C3.9332,18.7582 4.0302,18.7722 4.1252,18.7722 C4.5552,18.7722 4.9532,18.4912 5.0832,18.0582 C5.1142,17.9532 8.1992,8.1242 19.9862,7.0042 L18.2202,9.1212 C17.8652,9.5452 17.9232,10.1762 18.3472,10.5302 C18.5332,10.6862 18.7612,10.7622 18.9862,10.7622 C19.2732,10.7622 19.5572,10.6402 19.7552,10.4032 L22.9802,6.5372 C23.0092,6.5042 23.0192,6.4602 23.0422,6.4232" id="Fill-6" fill="#A86B49"></path>
                <path d="M40.499,28.814 C39.973,28.657 39.413,28.957 39.255,29.486 C39.224,29.591 36.139,39.42 24.352,40.539 L26.117,38.423 C26.472,38 26.414,37.369 25.99,37.015 C25.566,36.66 24.935,36.719 24.582,37.142 L21.357,41.006 C21.329,41.04 21.319,41.084 21.296,41.121 C21.256,41.183 21.218,41.242 21.193,41.312 C21.17,41.374 21.164,41.437 21.154,41.502 C21.147,41.552 21.125,41.596 21.125,41.647 C21.125,41.666 21.135,41.683 21.136,41.702 C21.137,41.721 21.129,41.739 21.131,41.758 C21.136,41.807 21.163,41.848 21.175,41.894 C21.192,41.961 21.207,42.026 21.237,42.086 C21.264,42.14 21.301,42.185 21.337,42.234 C21.379,42.291 21.421,42.346 21.475,42.393 C21.491,42.407 21.5,42.428 21.518,42.442 L25.605,45.567 C25.787,45.705 26,45.772 26.212,45.772 C26.513,45.772 26.811,45.637 27.008,45.379 C27.343,44.941 27.259,44.313 26.82,43.977 L24.886,42.499 C31.134,41.817 35.076,38.89 37.359,36.383 C40.186,33.282 41.132,30.189 41.171,30.058 C41.329,29.53 41.028,28.972 40.499,28.814" id="Fill-8" fill="#A86B49"></path>
            </g>
        </g>
    </g>
</svg>