<?xml version="1.0" encoding="UTF-8"?>
<svg width="50px" height="45px" viewBox="0 0 50 45" version="1.1" xmlns="http://www.w3.org/2000/svg" xmlns:xlink="http://www.w3.org/1999/xlink">
    <title>Group 3</title>
    <defs>
        <polygon id="path-1" points="0 0 49.702 0 49.702 44.0348 0 44.0348"></polygon>
    </defs>
    <g id="Desktop" stroke="none" stroke-width="1" fill="none" fill-rule="evenodd">
        <g id="006---Our-People" transform="translate(-623.000000, -795.000000)">
            <g id="OP:-Feature-Points" transform="translate(200.000000, 664.000000)">
                <g id="Group-3" transform="translate(423.000000, 131.000000)">
                    <mask id="mask-2" fill="white">
                        <use xlink:href="#path-1"></use>
                    </mask>
                    <g id="Clip-2"></g>
                    <path d="M47.502,41.8348 L2.2,41.8238 L2.2,40.2588 L47.502,40.2698 L47.502,41.8348 Z M4.326,36.4028 L5.898,36.4028 L13.705,36.4028 L20.969,36.4028 L28.775,36.4028 L37.088,36.4028 L44.895,36.4028 L45.376,36.4028 L45.376,38.0588 L4.326,38.0588 L4.326,36.4028 Z M6.999,33.1128 L7.077,33.1128 L12.605,33.1128 L12.605,34.2028 L6.999,34.2028 L6.999,33.1128 Z M12.605,16.5408 L12.605,17.6298 L7.077,17.6298 L6.999,17.6298 L6.999,16.5408 L12.605,16.5408 Z M4.326,12.6848 L4.808,12.6848 L44.895,12.6848 L45.376,12.6848 L45.376,14.3408 L44.895,14.3408 L37.088,14.3408 L28.775,14.3408 L20.969,14.3408 L13.705,14.3408 L5.898,14.3408 L4.326,14.3408 L4.326,12.6848 Z M24.851,2.2138 L40.467,10.4848 L9.235,10.4848 L24.851,2.2138 Z M38.188,33.1128 L38.266,33.1128 L43.794,33.1128 L43.794,34.2028 L38.188,34.2028 L38.188,33.1128 Z M43.794,17.6298 L38.266,17.6298 L38.188,17.6298 L38.188,16.5408 L43.794,16.5408 L43.794,17.6298 Z M39.366,30.9128 L42.763,30.9128 L42.763,19.8298 L39.366,19.8298 L39.366,30.9128 Z M22.069,33.1128 L22.147,33.1128 L27.675,33.1128 L27.675,34.2028 L22.069,34.2028 L22.069,33.1128 Z M27.675,17.6298 L22.147,17.6298 L22.069,17.6298 L22.069,16.5408 L27.675,16.5408 L27.675,17.6298 Z M23.247,30.9128 L26.643,30.9128 L26.643,19.8298 L23.247,19.8298 L23.247,30.9128 Z M8.177,30.9128 L11.573,30.9128 L11.573,19.8298 L8.177,19.8298 L8.177,30.9128 Z M14.805,34.2028 L14.805,33.0128 C14.805,32.2468 14.388,31.5818 13.774,31.2158 L13.774,19.5278 C14.388,19.1608 14.805,18.4958 14.805,17.7298 L14.805,16.5408 L19.869,16.5408 L19.869,17.7298 C19.869,18.5558 20.352,19.2648 21.047,19.6078 L21.047,31.1358 C20.352,31.4788 19.869,32.1878 19.869,33.0128 L19.869,34.2028 L14.805,34.2028 Z M29.875,34.2028 L29.875,33.0128 C29.875,32.2468 29.458,31.5818 28.844,31.2158 L28.844,19.5278 C29.458,19.1608 29.875,18.4958 29.875,17.7298 L29.875,16.5408 L35.988,16.5408 L35.988,17.7298 C35.988,18.5558 36.471,19.2648 37.166,19.6078 L37.166,31.1358 C36.471,31.4788 35.988,32.1878 35.988,33.0128 L35.988,34.2028 L29.875,34.2028 Z M47.576,38.0588 L47.576,36.1168 C47.576,35.2088 46.898,34.4508 45.995,34.2548 L45.995,33.0128 C45.995,32.2468 45.578,31.5818 44.963,31.2158 L44.963,19.5278 C45.578,19.1608 45.995,18.4958 45.995,17.7298 L45.995,16.4888 C46.898,16.2928 47.576,15.5338 47.576,14.6268 L47.576,12.3988 C47.576,11.3438 46.662,10.4848 45.539,10.4848 L45.168,10.4848 L25.804,0.2298 C25.245,-0.0752 24.465,-0.0772 23.905,0.2258 L4.535,10.4848 L4.163,10.4848 C3.04,10.4848 2.126,11.3438 2.126,12.3988 L2.126,14.6268 C2.126,15.6818 3.04,16.5408 4.163,16.5408 L4.798,16.5408 L4.798,17.7298 C4.798,18.5558 5.282,19.2648 5.977,19.6078 L5.977,31.1348 C5.282,31.4778 4.798,32.1868 4.798,33.0128 L4.798,34.2028 L4.163,34.2028 C3.04,34.2028 2.126,35.0618 2.126,36.1168 L2.126,38.0588 C0.934,38.0608 0,38.8928 0,39.9558 L0,42.1368 C0,43.2018 0.936,44.0348 2.129,44.0348 L47.573,44.0348 C48.767,44.0348 49.702,43.2018 49.702,42.1368 L49.702,39.9558 C49.702,38.8928 48.768,38.0608 47.576,38.0588 L47.576,38.0588 Z" id="Fill-1" fill="#A86B49" mask="url(#mask-2)"></path>
                </g>
            </g>
        </g>
    </g>
</svg>