<?xml version="1.0" encoding="UTF-8"?>
<svg width="29px" height="26px" viewBox="0 0 29 26" version="1.1" xmlns="http://www.w3.org/2000/svg" xmlns:xlink="http://www.w3.org/1999/xlink">
    <title>Group 8</title>
    <defs>
        <polygon id="path-1" points="0 0 21 0 21 13 0 13"></polygon>
    </defs>
    <g id="Desktop" stroke="none" stroke-width="1" fill="none" fill-rule="evenodd">
        <g id="007---Our-People---Bio" transform="translate(-688.000000, -3508.000000)">
            <g id="Group-8" transform="translate(688.000000, 3508.000000)">
                <path d="M14.4195003,18.7627517 C14.4644854,18.7919637 14.5349226,18.7919637 14.5799077,18.7627517 L27.8019758,10.0003804 L14.5799077,1.23800902 C14.5355146,1.20879706 14.4638935,1.20879706 14.4200923,1.23800902 L1.19743234,10.0003804 L14.4195003,18.7627517 Z M14.5,20 C14.2472548,20 13.9945095,19.9287958 13.7790546,19.7863875 C13.7790546,19.7863875 13.7784627,19.7863875 13.7784627,19.7857789 L0.555802751,11.0234076 C0.207760134,10.7927548 0,10.410565 0,10.0009889 C0,9.59080432 0.207760134,9.2080059 0.555802751,8.97735312 L13.7784627,0.214981781 C14.2099645,-0.0716605935 14.7900355,-0.0716605935 15.2209454,0.214981781 L28.4436053,8.97735312 C28.791648,9.2080059 29,9.59080432 29,10.0009889 C29,10.410565 28.791648,10.7927548 28.4430134,11.0234076 L15.2209454,19.7857789 C15.0048986,19.9287958 14.7521533,20 14.5,20 L14.5,20 Z" id="Fill-1" fill="#A86B48"></path>
                <g id="Group-5" transform="translate(4.000000, 13.000000)">
                    <mask id="mask-2" fill="white">
                        <use xlink:href="#path-1"></use>
                    </mask>
                    <g id="Clip-4"></g>
                    <path d="M1.26502214,1.66833501 L1.26502214,6.15645038 L10.4301075,11.8025987 C10.4674257,11.8256177 10.5325743,11.8250275 10.5698925,11.8031889 L19.7324478,6.137563 L19.7343454,1.66833501 L10.8412397,6.97687126 C10.6337761,7.10081974 10.3668564,7.10081974 10.1593928,6.97687126 L1.26502214,1.66833501 Z M10.5009488,13.0001771 C10.2308665,13.0001771 9.96141682,12.9293494 9.73181531,12.7871037 L0.56799494,7.12147782 C0.212523719,6.90191194 0,6.54069067 0,6.15645038 L0,0.589983253 C0,0.374548993 0.125869703,0.176231428 0.328905756,0.072350799 C0.53257432,-0.0303493686 0.777988615,-0.0232665985 0.973434535,0.0930088787 L10.5003163,5.77870264 L20.0265655,0.0930088787 C20.2226439,-0.0232665985 20.4680582,-0.0309395995 20.6717268,0.072350799 C20.8741303,0.176231428 21,0.374548993 21,0.589983253 L21,6.15645038 C21,6.54069067 20.7874763,6.90191194 20.4313725,7.12147782 L11.2688172,12.7865135 C11.0392157,12.9293494 10.769766,13.0001771 10.5009488,13.0001771 L10.5009488,13.0001771 Z" id="Fill-3" fill="#A86B48" mask="url(#mask-2)"></path>
                </g>
                <path d="M28.5,19 C28.2235,19 28,18.7312 28,18.4 L28,10.6 C28,10.2688 28.2235,10 28.5,10 C28.7765,10 29,10.2688 29,10.6 L29,18.4 C29,18.7312 28.7765,19 28.5,19" id="Fill-6" fill="#A86B48"></path>
            </g>
        </g>
    </g>
</svg>