<?xml version="1.0" encoding="UTF-8"?>
<svg width="46px" height="46px" viewBox="0 0 46 46" version="1.1" xmlns="http://www.w3.org/2000/svg" xmlns:xlink="http://www.w3.org/1999/xlink">
    <title>geometry</title>
    <g id="Desktop" stroke="none" stroke-width="1" fill="none" fill-rule="evenodd">
        <g id="001---Home" transform="translate(-1083.000000, -2925.000000)" fill="#A86B49" fill-rule="nonzero">
            <g id="Two-Tiles" transform="translate(200.000000, 2782.000000)">
                <g id="Industries-Tile" transform="translate(610.000000, 0.000000)">
                    <g id="Group-3" transform="translate(103.000000, 143.000000)">
                        <g id="geometry" transform="translate(170.000000, 0.000000)">
                            <path d="M16.1538462,25 L4.84615385,25 C2.16969698,25 0,27.169697 0,29.8461538 L0,41.1538462 C0,43.830303 2.16969698,46 4.84615385,46 L16.1538462,46 C18.830303,46 21,43.830303 21,41.1538462 L21,29.8461538 C21,27.169697 18.830303,25 16.1538462,25 Z M17.7692308,41.1538462 C17.7692308,42.0459984 17.0459984,42.7692308 16.1538462,42.7692308 L4.84615385,42.7692308 C3.95400156,42.7692308 3.23076923,42.0459984 3.23076923,41.1538462 L3.23076923,29.8461538 C3.23076923,28.9540016 3.95400156,28.2307692 4.84615385,28.2307692 L16.1538462,28.2307692 C17.0459984,28.2307692 17.7692308,28.9540016 17.7692308,29.8461538 L17.7692308,41.1538462 Z" id="Shape"></path>
                            <path d="M35.5,25 C29.7010101,25 25,29.7010101 25,35.5 C25,41.2989899 29.7010101,46 35.5,46 C41.2989899,46 46,41.2989899 46,35.5 C45.9928796,29.7039621 41.2960379,25.0071204 35.5,25 L35.5,25 Z M35.5,42.7692308 C32.5598706,42.7692308 29.9092453,40.9981396 28.7841065,38.2818142 C27.6589677,35.5654888 28.2808922,32.4388631 30.3598776,30.3598776 C32.4388631,28.2808922 35.5654888,27.6589677 38.2818142,28.7841065 C40.9981396,29.9092453 42.7692308,32.5598706 42.7692308,35.5 C42.7647795,39.5128401 39.5128401,42.7647795 35.5,42.7692308 L35.5,42.7692308 Z" id="Shape"></path>
                            <path d="M15.8509499,22 L30.1490501,22 C31.9064084,22 33.526307,21.0191369 34.383599,19.4361873 C35.240891,17.8532377 35.2015102,15.9156548 34.2806545,14.3711855 L27.1316044,2.38233332 C26.2487022,0.901846716 24.6846583,0 23,0 C21.3153417,0 19.7512978,0.901846716 18.8683956,2.38233332 L11.7193455,14.3711855 C10.7984898,15.9156548 10.759109,17.8532377 11.616401,19.4361873 C12.473693,21.0191369 14.0935916,22 15.8509499,22 Z M14.4748265,16.1215412 L21.6222595,4.13268905 C21.9171142,3.64176027 22.4370385,3.3430812 22.9967659,3.3430812 C23.5564933,3.3430812 24.0764175,3.64176027 24.3712722,4.13268905 L31.5187052,16.1215412 C31.8241067,16.6350944 31.8374678,17.2786534 31.5536608,17.8052313 C31.2698538,18.3318092 30.7329676,18.6596029 30.1490501,18.6628108 L15.8509499,18.6628108 C15.2658742,18.6620066 14.7268519,18.3351558 14.4414618,17.8081295 C14.1560717,17.2811032 14.1688311,16.6361111 14.4748265,16.1215412 L14.4748265,16.1215412 Z" id="Shape"></path>
                        </g>
                    </g>
                </g>
            </g>
        </g>
    </g>
</svg>