<?xml version="1.0" encoding="UTF-8"?>
<svg width="51px" height="49px" viewBox="0 0 51 49" version="1.1" xmlns="http://www.w3.org/2000/svg" xmlns:xlink="http://www.w3.org/1999/xlink">
    <title>Group 17</title>
    <g id="Desktop" stroke="none" stroke-width="1" fill="none" fill-rule="evenodd">
        <g id="018---DEI" transform="translate(-201.000000, -1612.000000)" fill="#A86B49">
            <g id="Group-17" transform="translate(201.000000, 1612.000000)">
                <path d="M30.8564,46.1835 L20.0554,46.1835 L20.0554,42.9665 C20.0554,40.9905 21.6644,39.3835 23.6394,39.3835 L26.8444,39.3835 C29.0564,39.3835 30.8564,41.1835 30.8564,43.3945 L30.8564,46.1835 Z M28.8114,33.6155 C28.8114,35.4655 27.3054,36.9705 25.4564,36.9705 C23.6064,36.9705 22.1014,35.4655 22.1014,33.6155 C22.1014,31.7665 23.6064,30.2615 25.4564,30.2615 C27.3054,30.2615 28.8114,31.7665 28.8114,33.6155 Z M31.0104,33.6155 C31.0104,30.5535 28.5194,28.0615 25.4564,28.0615 C22.3934,28.0615 19.9024,30.5535 19.9024,33.6155 C19.9024,35.1645 20.5404,36.5655 21.5664,37.5745 C19.3994,38.4095 17.8564,40.5085 17.8564,42.9665 L17.8564,47.2835 C17.8564,47.8915 18.3484,48.3835 18.9564,48.3835 L31.9564,48.3835 C32.5634,48.3835 33.0554,47.8915 33.0554,47.2835 L33.0554,43.3945 C33.0554,40.8205 31.4814,38.6075 29.2444,37.6665 C30.3284,36.6525 31.0104,35.2135 31.0104,33.6155 Z" id="Fill-1"></path>
                <path d="M30.8564,18.122 L20.0554,18.122 L20.0554,14.905 C20.0554,12.929 21.6644,11.322 23.6394,11.322 L26.8444,11.322 C29.0564,11.322 30.8564,13.122 30.8564,15.333 L30.8564,18.122 Z M28.8114,5.554 C28.8114,7.404 27.3054,8.909 25.4564,8.909 C23.6064,8.909 22.1014,7.404 22.1014,5.554 C22.1014,3.705 23.6064,2.2 25.4564,2.2 C27.3054,2.2 28.8114,3.705 28.8114,5.554 Z M31.0104,5.554 C31.0104,2.492 28.5194,0 25.4564,0 C22.3934,0 19.9024,2.492 19.9024,5.554 C19.9024,7.103 20.5404,8.504 21.5664,9.513 C19.3994,10.348 17.8564,12.447 17.8564,14.905 L17.8564,19.222 C17.8564,19.83 18.3484,20.322 18.9564,20.322 L31.9564,20.322 C32.5634,20.322 33.0554,19.83 33.0554,19.222 L33.0554,15.333 C33.0554,12.759 31.4814,10.546 29.2444,9.605 C29.5708637,9.29961791 29.8608657,8.95568797 30.1067574,8.58047623 C30.6773322,7.70982348 31.0104,6.6707371 31.0104,5.554 Z" id="Fill-3"></path>
                <path d="M13,32.85 L2.199,32.85 L2.199,29.633 C2.199,27.658 3.807,26.05 5.782,26.05 L8.988,26.05 C11.2,26.05 13,27.85 13,30.061 L13,32.85 Z M10.954,20.283 C10.954,22.132 9.449,23.637 7.6,23.637 C5.75,23.637 4.245,22.132 4.245,20.283 C4.245,18.433 5.75,16.928 7.6,16.928 C9.449,16.928 10.954,18.433 10.954,20.283 Z M15.199,30.061 C15.199,27.487 13.624,25.274 11.388,24.333 C12.471,23.319 13.153,21.88 13.153,20.283 C13.153,17.22 10.662,14.728 7.6,14.728 C4.537,14.728 2.046,17.22 2.046,20.283 C2.046,21.831 2.684,23.232 3.71,24.241 C1.544,25.076 0,27.175 0,29.633 L0,33.95 C0,34.558 0.492,35.05 1.1,35.05 L14.1,35.05 C14.707,35.05 15.199,34.558 15.199,33.95 L15.199,30.061 Z" id="Fill-5"></path>
                <path d="M47.9326,32.85 L37.1316,32.85 L37.1316,29.633 C37.1316,27.658 38.7396,26.05 40.7146,26.05 L43.9206,26.05 C45.1883063,26.05 46.3206918,26.6412069 47.0564864,27.5621623 C47.6045678,28.248167 47.9326,29.1171332 47.9326,30.061 L47.9326,32.85 Z M45.8866,20.283 C45.8866,22.132 44.3816,23.637 42.5326,23.637 C40.6826,23.637 39.1766,22.132 39.1766,20.283 C39.1766,18.433 40.6826,16.928 42.5326,16.928 C44.3816,16.928 45.8866,18.433 45.8866,20.283 Z M48.0856,20.283 C48.0856,17.22 45.5946,14.728 42.5326,14.728 C39.4686,14.728 36.9776,17.22 36.9776,20.283 C36.9776,21.831 37.6156,23.232 38.6416,24.241 C36.4756,25.077 34.9326,27.176 34.9326,29.633 L34.9326,33.95 C34.9326,34.558 35.4246,35.05 36.0326,35.05 L49.0326,35.05 C49.6396,35.05 50.1316,34.558 50.1316,33.95 L50.1316,30.061 C50.1316,27.487 48.5566,25.274 46.3206,24.333 C47.4036,23.319 48.0856,21.88 48.0856,20.283 Z" id="Fill-7"></path>
                <path d="M9.0088,36.6234 C8.9208,36.0234 8.3638,35.6034 7.7658,35.6944 C7.1638,35.7804 6.7458,36.3374 6.8318,36.9394 C7.1708,39.3084 9.3098,43.9454 14.9848,44.5444 C15.0238,44.5484 15.0628,44.5504 15.1008,44.5504 C15.6558,44.5504 16.1338,44.1304 16.1938,43.5654 C16.2568,42.9614 15.8188,42.4194 15.2148,42.3564 C9.8518,41.7914 9.0408,36.8344 9.0088,36.6234 Z" id="Fill-9"></path>
                <path d="M42.7471,35.6977 C42.1361,35.6097 41.5891,36.0247 41.4991,36.6237 C41.4671,36.8347 40.6561,41.7907 35.2931,42.3567 C34.6881,42.4197 34.2511,42.9617 34.3141,43.5657 C34.3741,44.1307 34.8511,44.5507 35.4071,44.5507 C35.4451,44.5507 35.4841,44.5487 35.5231,44.5437 C41.1981,43.9457 43.3371,39.3077 43.6761,36.9397 C43.7621,36.3397 43.3461,35.7857 42.7471,35.6977" id="Fill-11"></path>
                <path d="M7.8324,12.3837 C7.7464,12.9837 8.1624,13.5377 8.7604,13.6257 C8.8154,13.6327 8.8694,13.6367 8.9224,13.6367 C9.4574,13.6367 9.9264,13.2447 10.0084,12.6997 C10.0414,12.4887 10.8514,7.5317 16.2144,6.9667 C16.8194,6.9027 17.2564,6.3617 17.1934,5.7577 C17.1304,5.1537 16.5924,4.7107 15.9844,4.7787 C10.3094,5.3777 8.1714,10.0147 7.8324,12.3837 Z" id="Fill-13"></path>
                <path d="M41.586,13.6396 C41.638,13.6396 41.689,13.6366 41.742,13.6286 C42.344,13.5426 42.762,12.9856 42.676,12.3836 C42.337,10.0146 40.198,5.3776 34.523,4.7786 C33.909,4.7086 33.378,5.1536 33.314,5.7576 C33.251,6.3616 33.688,6.9026 34.293,6.9666 C39.656,7.5326 40.467,12.4886 40.499,12.6996 C40.579,13.2456 41.049,13.6396 41.586,13.6396 Z" id="Fill-15"></path>
            </g>
        </g>
    </g>
</svg>