<?xml version="1.0" encoding="UTF-8"?>
<svg width="46px" height="47px" viewBox="0 0 46 47" version="1.1" xmlns="http://www.w3.org/2000/svg" xmlns:xlink="http://www.w3.org/1999/xlink">
    <title>Group 11</title>
    <g id="Desktop" stroke="none" stroke-width="1" fill="none" fill-rule="evenodd">
        <g id="018---DEI" transform="translate(-505.000000, -1616.000000)">
            <g id="Group-11" transform="translate(505.000000, 1616.000000)">
                <path d="M15.203,39.1405 C15.203,39.7165 14.856,40.2165 14.361,40.4425 L14.361,39.3625 C14.361,38.7545 13.869,38.2625 13.262,38.2625 C12.654,38.2625 12.162,38.7545 12.162,39.3625 L12.162,41.6425 C12.162,41.8735 11.974,42.0635 11.742,42.0635 C11.511,42.0635 11.321,41.8735 11.321,41.6425 L11.321,39.3625 C11.321,38.7545 10.829,38.2625 10.222,38.2625 C9.614,38.2625 9.122,38.7545 9.122,39.3625 L9.122,42.4025 C9.122,42.6335 8.932,42.8235 8.701,42.8235 C8.47,42.8235 8.28,42.6335 8.28,42.4025 L8.28,41.6425 L8.28,39.3625 C8.28,38.7545 7.788,38.2625 7.181,38.2625 C6.573,38.2625 6.081,38.7545 6.081,39.3625 L6.081,41.6425 C6.081,41.8735 5.891,42.0635 5.66,42.0635 C5.429,42.0635 5.239,41.8735 5.239,41.6425 L5.239,39.3625 C5.239,38.7545 4.747,38.2625 4.14,38.2625 C3.532,38.2625 3.04,38.7545 3.04,39.3625 L3.04,39.5515 C2.537,39.2575 2.199,38.7125 2.199,38.0895 L2.199,26.8375 C2.199,25.3505 3.422,23.7315 4.568,22.3305 L4.991,21.8135 C5.152,21.6175 5.239,21.3705 5.239,21.1175 L5.239,17.6565 L14.506,17.6565 L14.698,20.9285 C14.71,21.1305 14.777,21.3265 14.893,21.4935 L17.562,25.3255 C17.588,25.3615 17.615,25.3965 17.645,25.4295 C18.031,25.8615 18.244,26.4165 18.244,26.9955 L18.244,28.3435 C18.244,28.7825 17.887,29.1395 17.447,29.1395 L16.303,29.1395 C15.695,29.1395 15.203,29.6315 15.203,30.2395 L15.203,39.1405 Z M15.31,30.5385 C15.31,29.9565 15.764,29.4755 16.346,29.4415 L20.301,29.2075 C20.385,28.9325 20.443,28.6455 20.443,28.3435 L20.443,26.9955 C20.443,25.8995 20.05,24.8435 19.332,24.0165 L16.876,20.4905 L16.868,20.3595 C15.543,20.0505 14.55,18.8655 14.55,17.4475 L14.55,17.4025 L6.749,17.4025 C5.422,17.4025 4.264,16.6715 3.631,15.5975 C3.284,15.7825 3.04,16.1355 3.04,16.5565 L3.04,20.7245 L2.865,20.9385 C1.478,22.6325 0,24.6245 0,26.8375 L0,38.0895 C0,39.9475 1.307,41.5045 3.052,41.8905 C3.177,43.2195 4.299,44.2625 5.66,44.2625 C6.018,44.2625 6.361,44.1905 6.673,44.0595 C7.153,44.6475 7.885,45.0225 8.701,45.0225 C9.517,45.0225 10.249,44.6475 10.729,44.0595 C11.041,44.1905 11.384,44.2625 11.742,44.2625 C12.79,44.2625 13.696,43.6445 14.114,42.7525 C14.574,42.7095 15.009,42.5795 15.404,42.3795 C15.345,42.2445 15.31,42.0975 15.31,41.9415 L15.31,30.5385 Z" id="Fill-1" fill="#A86B49"></path>
                <path d="M31.1298,28.5067 L31.1798,28.5067 C31.1708,28.3027 31.1428,28.1057 31.0948,27.9137 L31.1298,28.5067 Z" id="Fill-3" fill="#323232"></path>
                <path d="M30.0927,30.7059 C29.5107,30.7059 29.0297,30.2519 28.9947,29.6709 L28.9927,29.6379 L28.9927,29.7779 C28.9927,30.3859 29.4857,30.8779 30.0927,30.8779 L38.9937,30.8779 C39.5707,30.8779 40.0707,31.2249 40.2957,31.7199 L39.2157,31.7199 C38.6087,31.7199 38.1157,32.2119 38.1157,32.8189 C38.1157,33.4269 38.6087,33.9189 39.2157,33.9189 L41.4957,33.9189 C41.7277,33.9189 41.9167,34.1079 41.9167,34.3399 C41.9167,34.5709 41.7277,34.7609 41.4957,34.7609 L39.2157,34.7609 C38.6087,34.7609 38.1157,35.2529 38.1157,35.8599 C38.1157,36.4679 38.6087,36.9599 39.2157,36.9599 L42.2557,36.9599 C42.4877,36.9599 42.6767,37.1489 42.6767,37.3809 C42.6767,37.6119 42.4877,37.8019 42.2557,37.8019 L39.2157,37.8019 C38.6087,37.8019 38.1157,38.2939 38.1157,38.9009 C38.1157,39.5089 38.6087,40.0009 39.2157,40.0009 L41.4957,40.0009 C41.7277,40.0009 41.9167,40.1889 41.9167,40.4209 C41.9167,40.6519 41.7277,40.8419 41.4957,40.8419 L39.2157,40.8419 C38.6087,40.8419 38.1157,41.3339 38.1157,41.9409 C38.1157,42.5489 38.6087,43.0409 39.2157,43.0409 L39.4057,43.0409 C39.1117,43.5439 38.5667,43.8829 37.9437,43.8829 L26.6917,43.8829 C25.2037,43.8829 23.5847,42.6599 22.1857,41.5149 L21.6677,41.0909 C21.4707,40.9299 21.2247,40.8419 20.9707,40.8419 L17.5097,40.8419 L17.5097,31.5759 L20.7817,31.3829 C20.9847,31.3709 21.1797,31.3039 21.3467,31.1869 L25.1787,28.5189 C25.2147,28.4939 25.2497,28.4669 25.2827,28.4359 C25.7147,28.0509 26.2707,27.8379 26.8497,27.8379 L28.1967,27.8379 C28.5157,27.8379 28.7877,28.0289 28.9147,28.3009 L28.7607,25.6959 C28.5777,25.6609 28.3907,25.6389 28.1967,25.6389 L26.8497,25.6389 C25.7527,25.6389 24.6967,26.0319 23.8697,26.7499 L20.3437,29.2049 L20.3007,29.2079 L16.3457,29.4409 C15.7637,29.4759 15.3107,29.9569 15.3107,30.5389 L15.3107,41.9409 C15.3107,42.0979 15.3447,42.2449 15.4037,42.3799 C15.5737,42.7679 15.9587,43.0409 16.4097,43.0409 L20.5777,43.0409 L20.7917,43.2169 C22.4867,44.6029 24.4787,46.0819 26.6917,46.0819 L37.9437,46.0819 C39.8007,46.0819 41.3597,44.7729 41.7437,43.0289 C43.0727,42.9039 44.1157,41.7819 44.1157,40.4209 C44.1157,40.0619 44.0437,39.7209 43.9127,39.4089 C44.5007,38.9289 44.8757,38.1969 44.8757,37.3809 C44.8757,36.5639 44.5007,35.8329 43.9127,35.3519 C44.0437,35.0409 44.1157,34.6979 44.1157,34.3399 C44.1157,33.2919 43.4977,32.3849 42.6067,31.9669 C42.5557,31.4299 42.3757,30.9339 42.1157,30.4899 C41.9367,30.6159 41.7307,30.7059 41.4957,30.7059 L30.0927,30.7059 Z" id="Fill-5" fill="#A86B49"></path>
                <path d="M42.5956,29.6063 L42.5956,25.4373 L42.7706,25.2243 C44.1576,23.5283 45.6366,21.5343 45.6366,19.3243 L45.6366,8.0733 C45.6366,6.2143 44.3276,4.6563 42.5836,4.2713 C42.4586,2.9433 41.3366,1.9003 39.9756,1.9003 C39.6166,1.9003 39.2756,1.9723 38.9636,2.1033 C38.4826,1.5153 37.7516,1.1393 36.9346,1.1393 C36.1166,1.1393 35.3866,1.5143 34.9056,2.1033 C34.5946,1.9723 34.2526,1.9003 33.8946,1.9003 C32.8466,1.9003 31.9396,2.5183 31.5216,3.4103 C31.1056,3.4493 30.7146,3.5673 30.3506,3.7363 C30.4006,3.8613 30.4326,3.9963 30.4326,4.1393 L30.4326,7.0223 C30.4326,6.4473 30.7796,5.9473 31.2746,5.7213 L31.2746,6.8003 C31.2746,7.4083 31.7666,7.9003 32.3736,7.9003 C32.9816,7.9003 33.4736,7.4083 33.4736,6.8003 L33.4736,4.5203 C33.4736,4.2893 33.6626,4.0993 33.8946,4.0993 C34.1256,4.0993 34.3146,4.2893 34.3146,4.5203 L34.3146,6.8003 C34.3146,7.4083 34.8066,7.9003 35.4136,7.9003 C36.0216,7.9003 36.5136,7.4083 36.5136,6.8003 L36.5136,3.7593 C36.5136,3.5283 36.7026,3.3383 36.9346,3.3383 C37.1656,3.3383 37.3556,3.5283 37.3556,3.7593 L37.3556,6.8003 C37.3556,7.4083 37.8476,7.9003 38.4546,7.9003 C39.0626,7.9003 39.5546,7.4083 39.5546,6.8003 L39.5546,4.5203 C39.5546,4.2893 39.7436,4.0993 39.9756,4.0993 C40.2066,4.0993 40.3966,4.2893 40.3966,4.5203 L40.3966,6.8003 C40.3966,7.4083 40.8886,7.9003 41.4956,7.9003 C42.1036,7.9003 42.5956,7.4083 42.5956,6.8003 L42.5956,6.6103 C43.0986,6.9043 43.4376,7.4503 43.4376,8.0733 L43.4376,19.3243 C43.4376,20.8093 42.2136,22.4293 41.0676,23.8323 L40.6446,24.3483 C40.4846,24.5443 40.3966,24.7913 40.3966,25.0443 L40.3966,28.5063 L31.1796,28.5063 L31.1296,28.5063 L31.0946,27.9143 L30.9376,25.2343 C30.9256,25.0323 30.8586,24.8363 30.7416,24.6693 L28.0736,20.8363 C28.0476,20.8003 28.0206,20.7653 27.9906,20.7323 C27.6046,20.3003 27.3916,19.7453 27.3916,19.1663 L27.3916,17.8193 C27.3916,17.3793 27.7486,17.0223 28.1886,17.0223 L29.3326,17.0223 C29.9406,17.0223 30.4326,16.5303 30.4326,15.9223 L30.4326,15.5433 C30.4326,16.1253 29.9786,16.6073 29.3976,16.6403 L25.3996,16.8763 L25.3476,16.9113 C25.2556,17.1993 25.1926,17.5003 25.1926,17.8193 L25.1926,19.1663 C25.1926,20.2623 25.5856,21.3183 26.3036,22.1453 L28.7596,25.6723 L28.7606,25.6953 L28.9146,28.3003 L28.9926,29.6373 L28.9946,29.6703 C29.0296,30.2523 29.5106,30.7063 30.0926,30.7063 L41.4956,30.7063 C41.7316,30.7063 41.9366,30.6163 42.1156,30.4903 C42.3986,30.2913 42.5956,29.9783 42.5956,29.6063" id="Fill-7" fill="#A86B49"></path>
                <path d="M3.0663,8.701 C3.0663,8.47 3.2543,8.28 3.4863,8.28 L6.5273,8.28 C7.1343,8.28 7.6273,7.788 7.6273,7.18 C7.6273,6.573 7.1343,6.081 6.5273,6.081 L4.2473,6.081 C4.0153,6.081 3.8263,5.891 3.8263,5.66 C3.8263,5.429 4.0153,5.239 4.2473,5.239 L6.5273,5.239 C7.1343,5.239 7.6273,4.747 7.6273,4.139 C7.6273,3.532 7.1343,3.04 6.5273,3.04 L6.3373,3.04 C6.6313,2.537 7.1763,2.199 7.7993,2.199 L19.0513,2.199 C20.5393,2.199 22.1583,3.422 23.5583,4.568 L24.0753,4.991 C24.2713,5.151 24.5173,5.239 24.7713,5.239 L28.2333,5.239 L28.2333,7.022 L28.2333,14.506 L24.9613,14.698 C24.7583,14.71 24.5633,14.777 24.3963,14.893 L20.5643,17.562 C20.5283,17.588 20.4933,17.615 20.4603,17.645 C20.0283,18.031 19.4713,18.244 18.8923,18.244 L17.5453,18.244 C17.1063,18.244 16.7493,17.887 16.7493,17.447 L16.7493,16.303 C16.7493,15.695 16.2563,15.203 15.6493,15.203 L6.7493,15.203 C6.1733,15.203 5.6733,14.857 5.4483,14.362 L6.5273,14.362 C7.1343,14.362 7.6273,13.87 7.6273,13.263 C7.6273,12.655 7.1343,12.163 6.5273,12.163 L4.2473,12.163 C4.0153,12.163 3.8263,11.973 3.8263,11.742 C3.8263,11.511 4.0153,11.321 4.2473,11.321 L6.5273,11.321 C7.1343,11.321 7.6273,10.829 7.6273,10.222 C7.6273,9.614 7.1343,9.122 6.5273,9.122 L3.4863,9.122 C3.2543,9.122 3.0663,8.932 3.0663,8.701 M6.7493,17.402 L14.5493,17.402 L14.5493,17.447 C14.5493,18.866 15.5423,20.05 16.8683,20.359 C17.0873,20.41 17.3123,20.443 17.5453,20.443 L18.8923,20.443 C19.9903,20.443 21.0453,20.05 21.8733,19.332 L25.3483,16.912 L25.3993,16.876 L29.3973,16.64 C29.9783,16.607 30.4323,16.125 30.4323,15.543 L30.4323,7.022 L30.4323,4.139 C30.4323,3.996 30.4013,3.861 30.3513,3.736 C30.1903,3.329 29.7973,3.04 29.3333,3.04 L25.1643,3.04 L24.9513,2.865 C23.2563,1.478 21.2643,0 19.0513,0 L7.7993,0 C5.9413,0 4.3833,1.307 3.9983,3.052 C2.6703,3.177 1.6273,4.299 1.6273,5.66 C1.6273,6.018 1.6993,6.36 1.8303,6.673 C1.2423,7.153 0.8673,7.884 0.8673,8.701 C0.8673,9.518 1.2423,10.249 1.8303,10.729 C1.6993,11.042 1.6273,11.384 1.6273,11.742 C1.6273,12.79 2.2453,13.697 3.1363,14.115 C3.1873,14.654 3.3693,15.152 3.6313,15.597 C4.2643,16.671 5.4213,17.402 6.7493,17.402" id="Fill-9" fill="#A86B49"></path>
            </g>
        </g>
    </g>
</svg>