<?xml version="1.0" encoding="UTF-8"?>
<svg width="49px" height="38px" viewBox="0 0 49 38" version="1.1" xmlns="http://www.w3.org/2000/svg" xmlns:xlink="http://www.w3.org/1999/xlink">
    <title>Group 3</title>
    <defs>
        <polygon id="path-1" points="0 0 48.608 0 48.608 37.441 0 37.441"></polygon>
    </defs>
    <g id="Desktop" stroke="none" stroke-width="1" fill="none" fill-rule="evenodd">
        <g id="018---DEI" transform="translate(-1115.000000, -1620.000000)">
            <g id="Group-3" transform="translate(1115.000000, 1620.000000)">
                <mask id="mask-2" fill="white">
                    <use xlink:href="#path-1"></use>
                </mask>
                <g id="Clip-2"></g>
                <path d="M36.0586,20.3795 L26.8566,11.1775 C26.4656,10.7865 25.8326,10.7865 25.4426,11.1775 C25.3946,11.2255 25.3706,11.2855 25.3346,11.3395 L20.1376,14.0625 C19.7626,14.2595 19.3366,14.2895 18.9376,14.1525 C18.5376,14.0155 18.2226,13.7285 18.0476,13.3445 C17.7276,12.6395 17.9826,11.8115 18.6406,11.4185 C20.1236,10.5345 21.4996,9.6005 22.7326,8.6415 C24.6856,7.1205 28.5166,9.1235 29.8286,10.0245 C30.2276,10.2985 30.7696,10.2455 31.1116,9.8975 L38.3786,2.4295 L46.1946,10.2445 L36.0586,20.3795 Z M38.5226,27.3915 C38.0606,27.8525 37.2616,27.8515 36.8016,27.3915 L35.2816,25.8705 C35.2806,25.8695 35.2796,25.8695 35.2786,25.8685 L34.6216,25.2115 C34.2306,24.8205 33.5976,24.8205 33.2066,25.2115 C32.8166,25.6025 32.8166,26.2345 33.2066,26.6255 L36.7066,30.1255 C36.9376,30.3565 37.0636,30.6605 37.0636,30.9855 C37.0636,31.3105 36.9376,31.6155 36.7066,31.8465 C36.2326,32.3205 35.4606,32.3205 34.9866,31.8465 L34.3316,31.1915 C34.3296,31.1895 34.3286,31.1875 34.3276,31.1865 L30.6066,27.4665 C30.2156,27.0755 29.5826,27.0755 29.1926,27.4665 C28.8016,27.8575 28.8016,28.4895 29.1926,28.8805 L30.0716,29.7595 C30.0716,29.7595 30.0716,29.7605 30.0726,29.7605 L32.9146,32.6035 C33.3856,33.0775 33.3856,33.8475 32.9126,34.3205 C32.4386,34.7935 31.6666,34.7955 31.1926,34.3205 L27.4716,30.6015 L26.5916,29.7215 C26.2016,29.3305 25.5686,29.3305 25.1776,29.7215 C25.1276,29.7715 25.1016,29.8345 25.0646,29.8915 C24.9786,29.7775 24.8956,29.6615 24.7916,29.5575 L24.6656,29.4315 C24.1466,28.9115 23.4866,28.6275 22.8066,28.5505 C22.8696,28.3005 22.9136,28.0435 22.9136,27.7775 C22.9136,26.9415 22.5886,26.1565 21.9976,25.5665 L21.8706,25.4405 C21.4256,24.9945 20.8776,24.7165 20.3026,24.5965 C20.4676,23.6295 20.1836,22.6005 19.4386,21.8565 L19.3126,21.7305 C18.5696,20.9875 17.5426,20.7025 16.5766,20.8665 C16.4536,20.2755 16.1646,19.7325 15.7286,19.2975 L15.6016,19.1705 C14.3826,17.9515 12.4006,17.9515 11.1796,19.1705 L10.3106,20.0395 L2.4186,12.1475 L10.7936,3.8815 L14.5636,7.6515 C14.8136,7.9035 15.1786,8.0005 15.5216,7.9125 C15.5546,7.9045 17.9426,7.3035 20.9136,7.4915 C19.8956,8.2485 18.8036,8.9925 17.6166,9.7005 C16.0816,10.6155 15.4856,12.5375 16.2276,14.1725 C16.6256,15.0485 17.3756,15.7315 18.2876,16.0445 C19.1996,16.3585 20.2106,16.2805 21.0656,15.8335 L26.0656,13.2145 L36.3416,23.4905 L38.5226,25.6705 C38.9966,26.1455 38.9966,26.9165 38.5226,27.3915 L38.5226,27.3915 Z M27.2676,33.2255 C27.4916,33.4475 27.6096,33.7535 27.6006,34.0835 C27.5916,34.4345 27.4446,34.7695 27.1856,35.0275 C26.6666,35.5465 25.8586,35.5835 25.3816,35.1095 L24.5216,34.2505 L24.7916,33.9805 C25.4316,33.3405 25.7266,32.4925 25.6956,31.6535 L27.2676,33.2255 Z M19.8266,34.5175 L19.7026,34.3945 C19.2636,33.9545 19.2636,33.2385 19.7026,32.7995 L21.6576,30.8455 C21.8766,30.6255 22.1656,30.5155 22.4546,30.5155 C22.7436,30.5155 23.0326,30.6255 23.2516,30.8455 L23.3776,30.9715 C23.8176,31.4105 23.8176,32.1265 23.3776,32.5665 L22.4006,33.5425 L21.4216,34.5205 C20.9976,34.9455 20.2576,34.9485 19.8266,34.5175 L19.8266,34.5175 Z M16.1946,31.3705 L16.0676,31.2435 C15.6276,30.8045 15.6276,30.0895 16.0676,29.6505 L18.8636,26.8555 C19.0826,26.6345 19.3716,26.5255 19.6606,26.5255 C19.9496,26.5255 20.2376,26.6345 20.4566,26.8545 L20.5836,26.9825 C20.7966,27.1935 20.9136,27.4775 20.9136,27.7775 C20.9136,28.0785 20.7966,28.3615 20.5836,28.5745 L17.7876,31.3705 C17.3486,31.8095 16.6336,31.8115 16.1946,31.3705 L16.1946,31.3705 Z M12.4836,28.8115 L12.3576,28.6855 C12.1446,28.4725 12.0276,28.1895 12.0276,27.8885 C12.0276,27.5865 12.1446,27.3035 12.3576,27.0905 L12.9326,26.5155 L15.7286,23.7205 C15.7306,23.7185 15.7316,23.7165 15.7326,23.7145 L16.3036,23.1445 C16.5166,22.9315 16.7996,22.8145 17.1016,22.8145 C17.4026,22.8145 17.6856,22.9315 17.8986,23.1445 L18.0246,23.2705 C18.4636,23.7095 18.4636,24.4255 18.0246,24.8645 L17.4496,25.4405 L14.6536,28.2355 L14.0786,28.8115 C13.6396,29.2495 12.9236,29.2515 12.4836,28.8115 L12.4836,28.8115 Z M9.7976,24.9745 C9.3586,24.5345 9.3586,23.8195 9.7976,23.3805 L11.0166,22.1615 C11.0176,22.1615 11.0176,22.1615 11.0186,22.1605 C11.0186,22.1605 11.0196,22.1595 11.0196,22.1595 L12.5936,20.5855 C12.8136,20.3645 13.1026,20.2555 13.3906,20.2555 C13.6796,20.2555 13.9676,20.3645 14.1876,20.5845 L14.3146,20.7125 C14.5276,20.9245 14.6446,21.2075 14.6446,21.5085 C14.6446,21.8095 14.5276,22.0925 14.3146,22.3055 L11.5186,25.1015 C11.0786,25.5395 10.3646,25.5415 9.9246,25.1015 L9.7976,24.9745 Z M48.6086,10.2445 C48.6086,9.9795 48.5026,9.7255 48.3156,9.5375 L39.0766,0.2985 C38.8876,0.1095 38.6546,-0.0315 38.3626,0.0055 C38.0946,0.0075 37.8386,0.1155 37.6526,0.3085 L30.2406,7.9245 C29.1196,7.2685 26.8716,6.1415 24.6626,6.1005 C20.7986,5.0055 17.0016,5.5685 15.5896,5.8505 L11.5056,1.7655 C11.1176,1.3765 10.4876,1.3745 10.0966,1.7605 L0.2976,11.4305 C0.1086,11.6175 0.0006,11.8725 -0.000407011899,12.1395 C-0.0014,12.4045 0.1046,12.6605 0.2926,12.8495 L8.8966,21.4535 L8.3836,21.9665 C7.1646,23.1855 7.1646,25.1695 8.3836,26.3885 L8.5106,26.5165 C8.9566,26.9605 9.5046,27.2385 10.0796,27.3585 C9.9146,28.3255 10.1986,29.3545 10.9436,30.0995 L11.0696,30.2255 C11.6786,30.8345 12.4796,31.1405 13.2806,31.1405 C13.4576,31.1405 13.6346,31.1195 13.8096,31.0895 C13.9296,31.6645 14.2086,32.2125 14.6536,32.6575 L14.7806,32.7855 C15.3906,33.3945 16.1916,33.6985 16.9916,33.6985 C17.1216,33.6985 17.2516,33.6775 17.3816,33.6615 C17.3976,34.4415 17.6966,35.2165 18.2906,35.8115 L18.4146,35.9345 C19.0056,36.5255 19.7906,36.8505 20.6256,36.8505 C21.4616,36.8505 22.2466,36.5255 22.8366,35.9345 L23.1076,35.6635 L23.9676,36.5245 C24.5796,37.1365 25.3896,37.4415 26.2076,37.4415 C27.0666,37.4415 27.9346,37.1075 28.5996,36.4415 C28.9296,36.1115 29.1786,35.7235 29.3486,35.3055 L29.7786,35.7345 C30.4056,36.3615 31.2286,36.6755 32.0516,36.6755 C32.8756,36.6755 33.7006,36.3615 34.3276,35.7345 C34.7826,35.2795 35.0676,34.7185 35.1926,34.1305 C35.4086,34.1745 35.6266,34.2005 35.8466,34.2005 C36.6706,34.2005 37.4946,33.8875 38.1216,33.2605 C38.7286,32.6525 39.0636,31.8445 39.0636,30.9855 C39.0636,30.4805 38.9346,29.9975 38.7156,29.5585 C39.1686,29.4005 39.5876,29.1545 39.9366,28.8055 C41.1906,27.5525 41.1906,25.5115 39.9366,24.2565 L37.7556,22.0765 L37.4726,21.7935 L48.3156,10.9515 C48.5026,10.7645 48.6086,10.5105 48.6086,10.2445 L48.6086,10.2445 Z" id="Fill-1" fill="#A86B49" mask="url(#mask-2)"></path>
            </g>
        </g>
    </g>
</svg>