<?xml version="1.0" encoding="UTF-8"?>
<svg width="45px" height="46px" viewBox="0 0 45 46" version="1.1" xmlns="http://www.w3.org/2000/svg" xmlns:xlink="http://www.w3.org/1999/xlink">
    <title>Group 6</title>
    <defs>
        <polygon id="path-1" points="0 0 41.48196 0 41.48196 39.3119 0 39.3119"></polygon>
    </defs>
    <g id="Desktop" stroke="none" stroke-width="1" fill="none" fill-rule="evenodd">
        <g id="006---Our-People" transform="translate(-1235.000000, -792.000000)">
            <g id="OP:-Feature-Points" transform="translate(200.000000, 664.000000)">
                <g id="Group-6" transform="translate(1035.000000, 128.000000)">
                    <path d="M42.769,43.7178 L19.629,43.7178 L19.631,42.0098 L21.714,42.0098 C21.715,42.0098 21.717,42.0098 21.718,42.0098 L40.682,42.0098 C40.684,42.0098 40.685,42.0098 40.686,42.0098 L42.771,42.0098 L42.769,43.7178 Z M22.389,39.8098 L40.012,39.8098 L40.012,38.0188 L22.389,38.0188 L22.389,39.8098 Z M43.322,39.8088 L42.211,39.8088 L42.211,37.7608 C42.211,36.6358 41.568,35.8188 40.682,35.8188 L21.718,35.8188 C20.832,35.8188 20.188,36.6358 20.188,37.7608 L20.188,39.8088 L19.078,39.8088 C18.153,39.8088 17.429,40.6548 17.429,41.7348 L17.429,43.9928 C17.429,45.0718 18.153,45.9178 19.078,45.9178 L43.322,45.9178 C44.247,45.9178 44.971,45.0718 44.971,43.9928 L44.971,41.7348 C44.971,40.6548 44.247,39.8088 43.322,39.8088 L43.322,39.8088 Z" id="Fill-1" fill="#A86B49"></path>
                    <g id="Group-5">
                        <mask id="mask-2" fill="white">
                            <use xlink:href="#path-1"></use>
                        </mask>
                        <g id="Clip-4"></g>
                        <path d="M18.437,23.0669 L4.844,36.6599 C4.241,37.2639 3.258,37.2639 2.654,36.6599 C2.361,36.3669 2.2,35.9779 2.2,35.5649 C2.2,35.1499 2.361,34.7619 2.654,34.4689 L16.246,20.8759 L17.523,22.1529 L18.437,23.0669 Z M25.378,6.7499 L34.733,16.1029 L24.659,26.1769 L19.208,20.7259 L17.024,18.5429 C17.024,18.5419 17.024,18.5419 17.023,18.5419 L15.305,16.8229 L25.378,6.7499 Z M12.458,16.5589 L10.973,15.0729 L23.628,2.4179 L25.114,3.9029 L24.601,4.4159 L24.601,4.4159 L12.971,16.0459 C12.971,16.0459 12.971,16.0459 12.97,16.0469 L12.458,16.5589 Z M39.065,17.8539 L26.409,30.5089 L24.924,29.0239 L25.437,28.5109 L25.437,28.5109 L37.066,16.8809 C37.067,16.8809 37.067,16.8799 37.067,16.8799 L37.579,16.3679 L39.065,17.8539 Z M23.104,27.7329 L22.899,27.9369 C22.512,28.3229 22.403,28.9029 22.609,29.4859 C22.727,29.8229 22.942,30.1529 23.232,30.4439 L24.989,32.1999 C25.278,32.4899 25.609,32.7059 25.946,32.8239 C26.141,32.8929 26.335,32.9259 26.522,32.9259 C26.895,32.9259 27.238,32.7919 27.495,32.5349 L41.09,18.9399 C41.719,18.3109 41.579,17.2569 40.756,16.4339 L38.999,14.6769 C38.177,13.8559 37.124,13.7149 36.493,14.3429 L36.288,14.5479 L26.934,5.1939 L27.139,4.9889 C27.525,4.6029 27.634,4.0239 27.429,3.4399 C27.31,3.1029 27.094,2.7719 26.805,2.4829 L25.048,0.7269 C24.586,0.2649 24.028,-0.0001 23.516,-0.0001 L23.515,-0.0001 C23.14,-0.0001 22.794,0.1399 22.542,0.3919 L8.947,13.9869 C8.947,13.9869 8.947,13.9879 8.946,13.9879 C8.318,14.6179 8.459,15.6709 9.282,16.4929 L11.039,18.2499 C11.517,18.7279 12.074,18.9759 12.579,18.9759 C12.943,18.9759 13.281,18.8469 13.544,18.5839 L13.749,18.3789 L14.691,19.3209 L1.098,32.9139 C0.39,33.6219 0,34.5629 0,35.5649 C0,36.5659 0.39,37.5069 1.098,38.2149 C1.829,38.9459 2.789,39.3119 3.749,39.3119 C4.708,39.3119 5.669,38.9459 6.4,38.2149 L19.993,24.6219 L23.104,27.7329 Z" id="Fill-3" fill="#A86B49" mask="url(#mask-2)"></path>
                    </g>
                </g>
            </g>
        </g>
    </g>
</svg>