<?xml version="1.0" encoding="UTF-8"?>
<svg width="192px" height="43px" viewBox="0 0 192 43" version="1.1" xmlns="http://www.w3.org/2000/svg" xmlns:xlink="http://www.w3.org/1999/xlink">
    <title>Logo/White</title>
    <g id="Desktop" stroke="none" stroke-width="1" fill="none" fill-rule="evenodd">
        <g id="001---Home" transform="translate(-65.000000, -32.000000)">
            <g id="Nav/Home" transform="translate(65.000000, 31.000000)">
                <g id="Logo/White" transform="translate(0.000000, 1.000000)">
                    <path d="M13.32775,28.56675 L13.32775,29.46375 L16.64575,29.46375 L16.64575,26.146 L13.32775,26.146 L13.32775,28.56675 Z M0.00175,42.9565 L16.64575,42.9565 L16.64575,39.57775 L0.00175,39.57775 L0.00175,42.9565 Z M13.288,10.22875 C11.08925,10.22875 5.58075,10.22875 3.382,10.22875 C3.382,11.29025 3.382,15.0565 3.382,19.4835 C4.15175,19.4835 5.33025,19.4835 6.62725,19.4835 L6.62725,13.53925 L10.00525,13.53925 C10.00525,13.53925 10.00525,16.15825 10.00525,19.4835 C11.317,19.4835 12.51075,19.4835 13.288,19.4835 C13.288,17.33975 13.288,12.3725 13.288,10.22875 Z M14.977,6.85075 L16.666,6.85075 L16.666,22.86175 C16.666,22.86175 13.37575,22.86175 10.00525,22.86175 C10.00525,27.09825 10.00525,31.46475 10.00525,32.81175 C12.152,32.81175 16.64575,32.81175 16.64575,32.81175 L16.64575,36.18975 L6.62725,36.18975 L6.62725,22.86175 C5.225,22.86175 4.03825,22.86175 3.382,22.86175 C3.382,29.51075 3.382,36.17725 3.382,36.17725 L0.004,36.17725 L0.004,6.85075 L14.977,6.85075 Z M0,3.378 L16.6585,3.378 L16.6585,0 L0,0 L0,3.378 Z" id="Fill-1" fill="#A86B49"></path>
                    <polygon id="Fill-2" fill="#FFFFFF" points="66.09775 29.433 69.928 29.433 69.928 11.81325 66.09775 11.81325"></polygon>
                    <polyline id="Fill-3" fill="#FFFFFF" points="60.49775 25.7335 60.49775 29.433 64.32825 29.433 64.32825 16.4095 60.49775 16.4095 60.49775 25.7335"></polyline>
                    <polyline id="Fill-4" fill="#FFFFFF" points="60.49775 12.56675 60.49775 15.30025 64.32825 15.30025 64.32825 11.46975 60.49775 11.46975 60.49775 12.56675"></polyline>
                    <polyline id="Fill-5" fill="#FFFFFF" points="71.698 17.7335 71.698 29.433 75.52775 29.433 75.52775 11.81325 71.698 11.81325 71.698 17.7335"></polyline>
                    <path d="M54.73925,16.1455 C53.18125,16.1455 51.93925,16.88525 51.253,18.17975 L51.253,11.81325 L47.52825,11.81325 L47.52825,29.433 L51.253,29.433 L51.253,22.08975 C51.253,21.08575 51.3585,20.58375 51.64925,20.13475 C51.9925,19.5535 52.7055,19.15725 53.3925,19.15725 C53.9205,19.15725 54.31675,19.3685 54.58125,19.79125 C54.84525,20.21375 54.89825,20.58375 54.89825,22.08975 L54.89825,29.433 L58.72825,29.433 L58.72825,20.82175 C58.72825,18.99875 58.51725,18.1535 57.8565,17.41375 C57.14325,16.59475 56.034,16.1455 54.73925,16.1455" id="Fill-6" fill="#FFFFFF"></path>
                    <path d="M39.60425,19.68575 L36.91,19.68575 L36.91,15.01 L39.60425,15.01 C41.4005,15.01 42.378,15.82875 42.378,17.361 C42.378,18.81375 41.37425,19.68575 39.60425,19.68575 Z M44.755,13.21325 C43.54,12.13 42.378,11.81325 39.8155,11.81325 L32.8685,11.81325 L32.8685,29.433 L37.06825,29.433 L37.06825,22.88225 L39.974,22.88225 C42.43075,22.88225 43.5135,22.5915 44.62325,21.64025 C45.83825,20.61 46.52525,19.025 46.52525,17.22875 C46.52525,15.59075 45.94375,14.217 44.755,13.21325 L44.755,13.21325 Z" id="Fill-7" fill="#FFFFFF"></path>
                    <path d="M152.2995,18.65525 C153.69975,18.65525 154.33325,19.4475 154.51875,21.3235 L149.8955,21.3235 C150.081,19.50075 150.847,18.65525 152.2995,18.65525 Z M152.3785,26.9765 C150.89975,26.9765 149.86925,25.86775 149.86925,24.25625 C149.86925,24.07025 149.86925,23.833 149.8955,23.56925 L158.2695,23.56925 C158.243,21.2705 157.97875,20.18725 157.2125,18.89325 C156.2355,17.2025 154.28075,16.1455 152.1675,16.1455 C148.38975,16.1455 145.82775,18.946 145.82775,23.067 C145.82775,27.05575 148.38975,29.69825 152.273,29.69825 C155.28475,29.69825 157.18625,28.245 158.19025,25.18075 L154.70325,24.94325 C154.43875,26.26325 153.647,26.9765 152.3785,26.9765 L152.3785,26.9765 Z" id="Fill-8" fill="#FFFFFF"></path>
                    <polyline id="Fill-9" fill="#FFFFFF" points="77.29775 25.4835 77.29775 29.433 81.12775 29.433 81.12775 16.4095 77.29775 16.4095 77.29775 25.4835"></polyline>
                    <polyline id="Fill-10" fill="#FFFFFF" points="174.6545 15.34175 172.8585 15.34175 172.8585 29.4375 181.1635 29.4375 181.1635 27.895 174.6545 27.895 174.6545 15.34175"></polyline>
                    <path d="M187.102,22.2525 L183.86825,22.2525 L183.86825,16.82075 L187.22875,16.82075 C188.8135,16.82075 189.86975,17.941 189.86975,19.589 C189.86975,21.174 188.74975,22.2525 187.102,22.2525 Z M187.102,15.34175 L182.11425,15.34175 L182.11425,29.4375 L183.86825,29.4375 L183.86825,23.71 L187.2915,23.71 C189.84925,23.71 191.66625,21.977 191.66625,19.56825 C191.66625,16.98975 189.891,15.34175 187.102,15.34175 L187.102,15.34175 Z" id="Fill-11" fill="#FFFFFF"></path>
                    <polyline id="Fill-12" fill="#FFFFFF" points="140.9675 22.3895 140.9675 29.433 144.798 29.433 144.798 11.81325 140.9675 11.81325 140.9675 22.3895"></polyline>
                    <polyline id="Fill-13" fill="#FFFFFF" points="165.43475 15.338 163.638 15.338 163.638 29.433 171.94375 29.433 171.94375 27.89075 165.43475 27.89075 165.43475 15.338"></polyline>
                    <path d="M136.904,24.88925 L136.904,19.395 L139.704,19.395 L139.704,16.4095 L136.904,16.4095 L136.904,12.2885 L133.60225,12.5525 L133.285,16.4095 L129.55325,16.4095 L127.1495,24.17725 L124.6665,16.4095 L120.5725,16.4095 L125.3265,29.433 C124.983,30.67525 124.50775,31.046 123.24,31.046 C122.58,31.046 122.18375,31.0195 121.33775,30.88625 L121.33775,33.846 C122.18375,33.9515 122.58,33.97775 123.18725,33.97775 C124.904,33.97775 125.96075,33.52875 126.727,32.472 C127.3605,31.626 127.493,31.28325 128.2855,28.90575 L131.3815,19.395 L133.07325,19.395 L133.07325,25.47075 C133.07325,28.588 134.23575,29.7245 137.48475,29.7245 C137.98725,29.7245 138.568,29.6455 139.915,29.433 L139.915,26.581 C139.41325,26.63375 139.017,26.66025 138.69975,26.66025 C137.19475,26.66025 136.904,26.395 136.904,24.88925" id="Fill-14" fill="#FFFFFF"></path>
                    <polyline id="Fill-15" fill="#FFFFFF" points="77.29775 12.2335 77.29775 15.30025 81.12775 15.30025 81.12775 11.46975 77.29775 11.46975 77.29775 12.2335"></polyline>
                    <path d="M90.38625,25.6025 C90.0955,26.44925 89.4085,27.003 88.6695,27.003 C88.03525,27.003 87.34825,26.6075 87.00475,26.05225 C86.68825,25.57625 86.63575,25.15425 86.63575,23.7275 L86.63575,21.799 C86.63575,19.897 87.37475,18.81375 88.696,18.81375 C90.0165,18.81375 90.7035,20.13475 90.7035,22.6715 C90.7035,24.07025 90.62375,24.88925 90.38625,25.6025 Z M89.88475,16.1455 C88.21975,16.1455 87.13725,16.8325 86.45025,18.31175 L86.45025,16.4095 L82.9105,16.4095 L82.9105,33.846 L86.63575,33.846 L86.63575,28.00775 C87.34825,29.1695 88.29975,29.69825 89.69925,29.69825 C92.8955,29.69825 94.6915,27.21525 94.6915,22.77675 C94.6915,18.65525 92.86925,16.1455 89.88475,16.1455 L89.88475,16.1455 Z" id="Fill-16" fill="#FFFFFF"></path>
                    <path d="M105.71225,21.9845 C104.91975,21.482 103.9955,21.24425 101.67075,20.92725 C99.954,20.71575 99.47875,20.45175 99.47875,19.712 C99.47875,18.99875 100.2185,18.54975 101.407,18.54975 C102.7805,18.54975 103.57275,19.1045 103.94275,20.3195 L106.74275,19.5535 C105.765,17.0965 104.31275,16.1455 101.45975,16.1455 C98.21075,16.1455 96.045,17.86275 96.045,20.4255 C96.045,21.42925 96.415,22.40625 97.07475,23.09325 C97.7355,23.754 98.369,24.044 100.16575,24.38825 C100.9845,24.5465 102.14625,24.75725 102.48975,24.78375 C103.52025,24.917 103.94275,25.2335 103.94275,25.86775 C103.94275,26.6075 102.992,27.13475 101.67075,27.13475 C100.033,27.13475 99.10875,26.581 98.7915,25.3915 L95.54325,25.84125 C96.20325,28.42975 98.158,29.69825 101.48625,29.69825 C105.105,29.69825 107.29725,27.9535 107.29725,25.1015 C107.29725,23.78025 106.69,22.5915 105.71225,21.9845" id="Fill-17" fill="#FFFFFF"></path>
                    <polyline id="Fill-18" fill="#FFFFFF" points="122.68475 25.94675 115.68425 25.94675 115.68425 11.81325 111.51075 11.81325 111.51075 29.433 122.68475 29.433 122.68475 25.94675"></polyline>
                </g>
            </g>
        </g>
    </g>
</svg>