<?xml version="1.0" encoding="UTF-8"?>
<svg width="171px" height="442px" viewBox="0 0 171 442" version="1.1" xmlns="http://www.w3.org/2000/svg" xmlns:xlink="http://www.w3.org/1999/xlink">
    <title>Overlay Shape Copy 20</title>
    <defs>
        <path d="M170.13198,407.128205 L170.13198,442 L0,442 L0,407.128205 L170.13198,407.128205 Z M171,70.6153846 L171,235.228168 L102.641565,235.228168 L102.641565,337.526413 L170.792177,337.526413 L170.792177,372.25641 L67.9735776,372.25641 L67.9735776,235.228168 L34.667987,235.228168 L34.667987,372.127895 L0,372.127895 L0,70.6153846 L171,70.6153846 Z M170.13198,268.512821 L170.13198,302.512821 L136.279188,302.512821 L136.279188,268.512821 L170.13198,268.512821 Z M135.375,106.935484 L35.625,106.935484 L35.625,199.612903 L68.3035471,199.612903 L68.3035471,140.086957 L102.318841,140.086957 L102.318841,199.612903 L135.375,199.612903 L135.375,106.935484 Z M171,0 L171,34.8717949 L0,34.8717949 L0,0 L171,0 Z" id="path-1"></path>
    </defs>
    <g id="Desktop" stroke="none" stroke-width="1" fill="none" fill-rule="evenodd">
        <g id="001---Home" transform="translate(-200.000000, -949.000000)">
            <g id="Overlay-Shape-Copy-20" transform="translate(200.000000, 949.000000)">
                <mask id="mask-2" fill="white">
                    <use xlink:href="#path-1"></use>
                </mask>
                <use id="Combined-Shape" fill="#9F6241" xlink:href="#path-1"></use>
            </g>
        </g>
    </g>
</svg>