<?xml version="1.0" encoding="UTF-8"?>
<svg width="46px" height="46px" viewBox="0 0 46 46" version="1.1" xmlns="http://www.w3.org/2000/svg" xmlns:xlink="http://www.w3.org/1999/xlink">
    <title>puzzle</title>
    <g id="Desktop" stroke="none" stroke-width="1" fill="none" fill-rule="evenodd">
        <g id="001---Home" transform="translate(-472.000000, -2925.000000)" fill="#A86B49" fill-rule="nonzero">
            <g id="Two-Tiles" transform="translate(200.000000, 2782.000000)">
                <g id="Group-3" transform="translate(103.000000, 143.000000)">
                    <g id="puzzle" transform="translate(169.000000, 0.000000)">
                        <path d="M41.9570312,0 C41.3554375,0 4.6445625,0 4.04296875,0 C1.81367578,0 0,1.81367578 0,4.04296875 C0,4.6445625 0,41.3554375 0,41.9570312 C0,44.1863242 1.81367578,46 4.04296875,46 C4.6445625,46 41.3554375,46 41.9570312,46 C44.1863242,46 46,44.1863242 46,41.9570312 C46,41.3554375 46,4.6445625 46,4.04296875 C46,1.81367578 44.1863242,0 41.9570312,0 Z M2.6953125,4.04296875 C2.6953125,3.29987109 3.29987109,2.6953125 4.04296875,2.6953125 L21.6523438,2.6953125 L21.6523438,9.2 C21.6523438,10.3596133 23.0274922,10.9785469 23.895293,10.2073281 C24.3985977,9.75990625 25.021125,9.5234375 25.6953125,9.5234375 C27.1815078,9.5234375 28.390625,10.7325547 28.390625,12.21875 C28.390625,13.7049453 27.1815078,14.9140625 25.6953125,14.9140625 C25.021125,14.9140625 24.3985977,14.6775937 23.895293,14.2301719 C23.0285703,13.4598516 21.6523438,14.0764492 21.6523438,15.2375 L21.6523438,21.6523438 L17.4390312,21.6523438 C17.5513359,21.2156133 17.609375,20.7631602 17.609375,20.3046875 C17.609375,17.3322969 15.1911406,14.9140625 12.21875,14.9140625 C9.24635937,14.9140625 6.828125,17.3322969 6.828125,20.3046875 C6.828125,20.7631602 6.88607422,21.2156133 6.99837891,21.6523438 L2.6953125,21.6523438 L2.6953125,4.04296875 Z M21.6523438,43.3046875 L4.04296875,43.3046875 C3.29987109,43.3046875 2.6953125,42.7001289 2.6953125,41.9570312 L2.6953125,24.3476562 L9.2,24.3476562 C10.3597031,24.3476562 10.9785469,22.9725078 10.2073281,22.104707 C9.75990625,21.6014023 9.5234375,20.978875 9.5234375,20.3046875 C9.5234375,18.8184922 10.7325547,17.609375 12.21875,17.609375 C13.7049453,17.609375 14.9140625,18.8184922 14.9140625,20.3046875 C14.9140625,20.978875 14.6775937,21.6013125 14.2301719,22.104707 C13.4597617,22.9715195 14.0764492,24.3476562 15.2375,24.3476562 L21.6523438,24.3476562 L21.6523438,28.5608789 C21.2156133,28.4485742 20.76325,28.390625 20.3046875,28.390625 C17.3322969,28.390625 14.9140625,30.8088594 14.9140625,33.78125 C14.9140625,36.7536406 17.3322969,39.171875 20.3046875,39.171875 C20.76325,39.171875 21.2156133,39.1139258 21.6523438,39.0016211 L21.6523438,43.3046875 Z M43.3046875,41.9570312 C43.3046875,42.7001289 42.7001289,43.3046875 41.9570312,43.3046875 L24.3476562,43.3046875 L24.3476562,36.8 C24.3476562,35.6403867 22.9725078,35.0214531 22.104707,35.7926719 C21.6014023,36.2400938 20.978875,36.4765625 20.3046875,36.4765625 C18.8184922,36.4765625 17.609375,35.2674453 17.609375,33.78125 C17.609375,32.2950547 18.8184922,31.0859375 20.3046875,31.0859375 C20.978875,31.0859375 21.6014023,31.3224063 22.104707,31.7698281 C22.9713398,32.5401484 24.3476562,31.9235508 24.3476562,30.7625 L24.3476562,24.3386719 L28.5608789,24.3386719 C28.4486641,24.7754023 28.390625,25.2277656 28.390625,25.6863281 C28.390625,28.6587188 30.8088594,31.0859375 33.78125,31.0859375 C36.7536406,31.0859375 39.171875,28.6677031 39.171875,25.6953125 C39.171875,25.23675 39.1138359,24.7843867 39.0016211,24.3476563 L43.3046875,24.3476563 L43.3046875,41.9570312 Z M43.3046875,21.6523438 L36.8,21.6523438 C35.6402969,21.6523438 35.0213633,23.0276719 35.7928516,23.8953828 C36.2337148,24.3914102 36.4765625,25.0305586 36.4765625,25.6953125 C36.4765625,27.1815078 35.2674453,28.390625 33.78125,28.390625 C32.2950547,28.390625 31.0859375,27.1815078 31.0859375,25.6953125 C31.0859375,25.0306484 31.3287852,24.3914102 31.7696484,23.8953828 C32.5402383,23.0286602 31.9235508,21.6523438 30.7625,21.6523438 L24.3476562,21.6523438 L24.3476562,17.4391211 C24.7843867,17.5514258 25.23675,17.609375 25.6953125,17.609375 C28.6677031,17.609375 31.0859375,15.1911406 31.0859375,12.21875 C31.0859375,9.24635937 28.6677031,6.828125 25.6953125,6.828125 C25.23675,6.828125 24.7843867,6.88607422 24.3476562,6.99837891 L24.3476562,2.6953125 L41.9570312,2.6953125 C42.7001289,2.6953125 43.3046875,3.29987109 43.3046875,4.04296875 L43.3046875,21.6523438 Z" id="Shape"></path>
                    </g>
                </g>
            </g>
        </g>
    </g>
</svg>