<?xml version="1.0" encoding="UTF-8"?>
<svg width="48px" height="47px" viewBox="0 0 48 47" version="1.1" xmlns="http://www.w3.org/2000/svg" xmlns:xlink="http://www.w3.org/1999/xlink">
    <title>Group 3</title>
    <defs>
        <polygon id="path-1" points="0 0 47.625 0 47.625 46.574 0 46.574"></polygon>
    </defs>
    <g id="Desktop" stroke="none" stroke-width="1" fill="none" fill-rule="evenodd">
        <g id="006---Our-People" transform="translate(-319.000000, -792.000000)">
            <g id="OP:-Feature-Points" transform="translate(200.000000, 664.000000)">
                <g id="Group-3" transform="translate(119.000000, 128.000000)">
                    <mask id="mask-2" fill="white">
                        <use xlink:href="#path-1"></use>
                    </mask>
                    <g id="Clip-2"></g>
                    <path d="M39.0625,33.282 C36.0675,33.282 33.7095,31.446 33.1345,28.846 L44.9905,28.846 C44.4155,31.446 42.0575,33.282 39.0625,33.282 L39.0625,33.282 Z M44.4745,26.346 L33.4925,26.346 L38.3275,12.079 L44.4745,26.346 Z M23.3785,40.82 L23.3785,3.068 C23.3785,2.755 23.6325,2.5 23.9455,2.5 C24.2585,2.5 24.5135,2.755 24.5135,3.068 L24.5135,40.82 L23.3785,40.82 Z M37.1875,44.074 L10.7045,44.074 L10.7045,43.32 L22.1285,43.32 L25.7635,43.32 L37.1875,43.32 L37.1875,44.074 Z M8.5625,33.282 C5.5665,33.282 3.2095,31.446 2.6345,28.846 L14.4905,28.846 C13.9155,31.446 11.5585,33.282 8.5625,33.282 L8.5625,33.282 Z M9.2975,12.079 L14.1315,26.346 L3.1495,26.346 L9.2975,12.079 Z M47.5675,27.313 C47.5515,27.244 47.5515,27.17 47.5245,27.106 C47.5235,27.105 47.5245,27.103 47.5235,27.102 L39.3355,8.102 C39.1315,7.627 38.6625,7.337 38.1375,7.347 C38.0365,7.352 37.9415,7.377 37.8475,7.404 C37.7535,7.381 37.6635,7.346 37.5625,7.346 L27.0135,7.346 L27.0135,3.068 C27.0135,1.376 25.6375,-7.10542736e-15 23.9455,-7.10542736e-15 C22.2545,-7.10542736e-15 20.8785,1.376 20.8785,3.068 L20.8785,7.346 L9.5625,7.346 C9.5485,7.346 9.5375,7.354 9.5235,7.354 C9.5115,7.353 9.5005,7.348 9.4875,7.347 C8.9745,7.328 8.4945,7.626 8.2895,8.102 L0.1025,27.102 C0.1015,27.103 0.1015,27.104 0.1015,27.105 C0.0705,27.178 0.0685,27.263 0.0515,27.343 C0.0335,27.427 0.0005,27.509 0.0005,27.593 C0.0005,27.594 -0.0005,27.595 -0.0005,27.596 C-0.0005,32.186 3.7615,35.782 8.5625,35.782 C13.3285,35.782 17.0655,32.237 17.1195,27.696 C17.1205,27.69 17.1205,27.684 17.1205,27.678 C17.1215,27.651 17.1255,27.624 17.1255,27.596 C17.1255,27.526 17.0965,27.465 17.0845,27.398 C17.0745,27.33 17.0815,27.263 17.0595,27.196 L11.1805,9.846 L20.8785,9.846 L20.8785,40.82 L10.0825,40.82 C9.0465,40.82 8.2045,41.689 8.2045,42.757 L8.2045,44.636 C8.2045,45.705 9.0465,46.574 10.0825,46.574 L37.8095,46.574 C38.8445,46.574 39.6875,45.705 39.6875,44.636 L39.6875,42.757 C39.6875,41.689 38.8445,40.82 37.8095,40.82 L27.0135,40.82 L27.0135,9.846 L36.4445,9.846 L30.5665,27.196 C30.5445,27.261 30.5525,27.327 30.5415,27.393 C30.5295,27.462 30.4995,27.524 30.4995,27.596 C30.4995,27.625 30.5035,27.652 30.5045,27.68 C30.5045,27.685 30.5045,27.689 30.5055,27.694 C30.5585,32.237 34.2955,35.782 39.0625,35.782 C43.8645,35.782 47.6255,32.186 47.6255,27.596 C47.6255,27.595 47.6245,27.594 47.6245,27.593 C47.6245,27.499 47.5895,27.407 47.5675,27.313 L47.5675,27.313 Z" id="Fill-1" fill="#A86B49" mask="url(#mask-2)"></path>
                </g>
            </g>
        </g>
    </g>
</svg>