<?xml version="1.0" encoding="UTF-8"?>
<svg width="14px" height="34px" viewBox="0 0 14 34" version="1.1" xmlns="http://www.w3.org/2000/svg" xmlns:xlink="http://www.w3.org/1999/xlink">
    <title>Combined Shape Copy</title>
    <g id="Desktop" stroke="none" stroke-width="1" fill="none" fill-rule="evenodd">
        <g id="005---Industries---Default" transform="translate(-793.000000, -4459.000000)" fill="#A36645">
            <g id="Bullet-Styles" transform="translate(200.000000, 3733.000000)">
                <g id="Divider" transform="translate(244.000000, 726.000000)">
                    <path d="M362.43401,31.3175542 L362.43401,34 L349.5,34 L349.5,31.3175542 L362.43401,31.3175542 Z M362.5,5.43195266 L362.5,18.0944745 L357.30316,18.0944745 L357.30316,25.9635702 L362.484201,25.9635702 L362.484201,28.6351085 L354.667582,28.6351085 L354.667582,18.0944745 L352.135578,18.0944745 L352.135578,28.6252227 L349.5,28.6252227 L349.5,5.43195266 L362.5,5.43195266 Z M362.43401,20.6548323 L362.43401,23.270217 L359.860406,23.270217 L359.860406,20.6548323 L362.43401,20.6548323 Z M360.5,8 L352.5,8 L352.5,15 L355.120836,15 L355.120836,10.5039574 L357.848879,10.5039574 L357.848879,15 L360.5,15 L360.5,8 Z M362.5,0 L362.5,2.68244576 L349.5,2.68244576 L349.5,0 L362.5,0 Z" id="Combined-Shape-Copy"></path>
                </g>
            </g>
        </g>
    </g>
</svg>