<?xml version="1.0" encoding="UTF-8"?>
<svg width="30px" height="24px" viewBox="0 0 30 24" version="1.1" xmlns="http://www.w3.org/2000/svg" xmlns:xlink="http://www.w3.org/1999/xlink">
    <title>Group 6</title>
    <defs>
        <polygon id="path-1" points="0 0 23 0 23 20 0 20"></polygon>
    </defs>
    <g id="Desktop" stroke="none" stroke-width="1" fill="none" fill-rule="evenodd">
        <g id="007---Our-People---Bio" transform="translate(-688.000000, -5080.000000)">
            <g id="Group-6" transform="translate(688.000000, 5080.000000)">
                <path d="M1.50969697,7.24326564 C1.35939394,7.24326564 1.21212121,7.37940323 1.21212121,7.51740572 L1.21212121,22.598218 C1.21212121,22.6815168 1.24,22.7107335 1.28727273,22.7331123 C1.3769697,22.7753833 1.53515152,22.7666805 1.66484848,22.6491919 L5.29939394,19.2184003 C5.41090909,19.1127228 5.55757576,19.0542893 5.70969697,19.0542893 L18.2660606,19.0542893 C18.5406061,19.0542893 18.7060606,19.0169913 18.7878788,18.9871529 L18.7878788,7.51740572 C18.7581818,7.43162039 18.4775758,7.24326564 18.2660606,7.24326564 L1.50969697,7.24326564 Z M1.4,24 C1.19151515,24 0.983636364,23.9564857 0.78969697,23.8663489 C0.295151515,23.6382097 0,23.1639039 0,22.598218 L0,7.51740572 C0,6.6949855 0.690909091,6 1.50969697,6 L18.2660606,6 C19.0678788,6 20,6.66266059 20,7.51740572 L20,19.0859925 C20,19.3700787 19.8751515,20.2975549 18.2660606,20.2975549 L5.94545455,20.2975549 L2.4769697,23.5723166 C2.16666667,23.8539163 1.78181818,24 1.4,24 L1.4,24 Z" id="Fill-1" fill="#A86B48"></path>
                <g id="Group-5" transform="translate(7.000000, 0.000000)">
                    <mask id="mask-2" fill="white">
                        <use xlink:href="#path-1"></use>
                    </mask>
                    <g id="Clip-4"></g>
                    <path d="M21.3348487,20 C20.9276832,20 20.5254907,19.8569323 20.2115693,19.5824635 L16.0622113,15.9646322 L13.0541599,15.9646322 C12.7104004,15.9646322 12.4325332,15.6895493 12.4325332,15.3506079 C12.4325332,15.0110524 12.7104004,14.7365836 13.0541599,14.7365836 L16.2971862,14.7365836 C16.4488631,14.7365836 16.5949454,14.7912317 16.708703,14.8900896 L21.0352246,18.662041 C21.1968475,18.8038806 21.3982546,18.7897581 21.5312827,18.7301977 C21.6152023,18.6927422 21.7569332,18.6006386 21.7569332,18.4041508 L21.7569332,1.28883704 C21.7351762,1.28269679 21.6002832,1.22804863 21.2465777,1.22804863 L1.4943905,1.22804863 C1.36882191,1.22804863 1.29111858,1.2348029 1.24449658,1.24217119 C1.24387495,1.25445168 1.24325332,1.26857424 1.24325332,1.28515289 L1.24325332,6.75426747 C1.24325332,7.09320889 0.964764579,7.36829178 0.621626662,7.36829178 C0.277867118,7.36829178 0,7.09320889 0,6.75426747 L0,1.28515289 C0,0.432273118 0.502274343,0 1.4943905,0 L21.2465777,0 C22.8292392,0 23.0001865,0.898931598 23.0001865,1.28515289 L23.0001865,18.4041508 C23.0001865,19.0329117 22.6328051,19.5867616 22.0422598,19.849564 C21.8153661,19.9508781 21.5741749,20 21.3348487,20" id="Fill-3" fill="#A86B48" mask="url(#mask-2)"></path>
                </g>
            </g>
        </g>
    </g>
</svg>